<svg width="21" height="20" viewBox="0 0 21 20" fill="none" xmlns="http://www.w3.org/2000/svg">
<path d="M10.3935 10H9.69355C9.69355 10.187 9.76833 10.3661 9.90123 10.4976L10.3935 10ZM10.3935 18.3C5.74889 18.3 1.99651 14.5769 1.99651 10H0.596509C0.596509 15.3642 4.98989 19.7 10.3935 19.7V18.3ZM18.7906 10C18.7906 14.5769 15.0382 18.3 10.3935 18.3V19.7C15.7972 19.7 20.1906 15.3642 20.1906 10H18.7906ZM10.3935 1.7C15.0382 1.7 18.7906 5.4231 18.7906 10H20.1906C20.1906 4.63578 15.7972 0.3 10.3935 0.3V1.7ZM10.3935 0.3C4.98989 0.3 0.596509 4.63578 0.596509 10H1.99651C1.99651 5.4231 5.74889 1.7 10.3935 1.7V0.3ZM9.69355 4.21429V10H11.0935V4.21429H9.69355ZM9.90123 10.4976L13.8 14.3548L14.7846 13.3595L10.8859 9.50238L9.90123 10.4976Z" fill="white"/>
</svg>
