<svg width="20" height="20" viewBox="0 0 20 20" fill="none" xmlns="http://www.w3.org/2000/svg">
<path d="M4.85714 15.1428H5.55714V14.4428H4.85714V15.1428ZM4.85714 19H4.15714C4.15714 19.2651 4.30694 19.5075 4.54409 19.6261C4.78124 19.7447 5.06503 19.7191 5.27714 19.56L4.85714 19ZM10 15.1428V14.4428H9.76667L9.58 14.5828L10 15.1428ZM6.14286 5.44285H5.44286V6.84285H6.14286V5.44285ZM13.8571 6.84285H14.5571V5.44285H13.8571V6.84285ZM6.14286 9.3H5.44286V10.7H6.14286V9.3ZM11.2857 10.7H11.9857V9.3H11.2857V10.7ZM4.15714 15.1428V19H5.55714V15.1428H4.15714ZM5.27714 19.56L10.42 15.7028L9.58 14.5828L4.43714 18.44L5.27714 19.56ZM10 15.8428H17.7143V14.4428H10V15.8428ZM17.7143 15.8428C18.8119 15.8428 19.7 14.9548 19.7 13.8572H18.3C18.3 14.1815 18.0387 14.4428 17.7143 14.4428V15.8428ZM19.7 13.8572V2.28569H18.3V13.8572H19.7ZM19.7 2.28569C19.7 1.18807 18.8119 0.3 17.7143 0.3V1.7C18.0387 1.7 18.3 1.96131 18.3 2.28569H19.7ZM17.7143 0.3H2.28571V1.7H17.7143V0.3ZM2.28571 0.3C1.18813 0.3 0.3 1.18807 0.3 2.28569H1.7C1.7 1.96131 1.9613 1.7 2.28571 1.7V0.3ZM0.3 2.28569V13.8572H1.7V2.28569H0.3ZM0.3 13.8572C0.3 14.9548 1.18813 15.8428 2.28571 15.8428V14.4428C1.9613 14.4428 1.7 14.1815 1.7 13.8572H0.3ZM2.28571 15.8428H4.85714V14.4428H2.28571V15.8428ZM6.14286 6.84285H13.8571V5.44285H6.14286V6.84285ZM6.14286 10.7H11.2857V9.3H6.14286V10.7Z" fill="#62CCB2"/>
</svg>
