<svg width="21" height="20" viewBox="0 0 21 20" fill="none" xmlns="http://www.w3.org/2000/svg">
<path d="M1.29108 10L0.728432 9.43129C0.576544 9.58156 0.491077 9.78634 0.491077 10C0.491077 10.2137 0.576544 10.4184 0.728432 10.5687L1.29108 10ZM10.3881 19L9.82547 19.5687C10.1372 19.8771 10.639 19.8771 10.9508 19.5687L10.3881 19ZM19.4851 10L20.0478 10.5687C20.1997 10.4184 20.2851 10.2137 20.2851 10H19.4851ZM10.3881 1V0.2C10.1774 0.2 9.97524 0.283112 9.82547 0.43129L10.3881 1ZM0.728432 10.5687L9.82547 19.5687L10.9508 18.4313L1.85372 9.43129L0.728432 10.5687ZM10.9508 19.5687L20.0478 10.5687L18.9225 9.43129L9.82547 18.4313L10.9508 19.5687ZM20.2851 10V2.28571H18.6851V10H20.2851ZM18.1856 0.2H10.3881V1.8H18.1856V0.2ZM9.82547 0.43129L0.728432 9.43129L1.85372 10.5687L10.9508 1.56871L9.82547 0.43129ZM20.2851 2.28571C20.2851 1.12574 19.337 0.2 18.1856 0.2V1.8C18.4696 1.8 18.6851 2.02553 18.6851 2.28571H20.2851ZM14.2868 6.62857C14.0028 6.62857 13.7873 6.40304 13.7873 6.14286H12.1873C12.1873 7.30283 13.1354 8.22857 14.2868 8.22857V6.62857ZM14.7864 6.14286C14.7864 6.40304 14.5709 6.62857 14.2868 6.62857V8.22857C15.4383 8.22857 16.3864 7.30283 16.3864 6.14286H14.7864ZM14.2868 5.65714C14.5709 5.65714 14.7864 5.88267 14.7864 6.14286H16.3864C16.3864 4.98288 15.4383 4.05714 14.2868 4.05714V5.65714ZM14.2868 4.05714C13.1354 4.05714 12.1873 4.98288 12.1873 6.14286H13.7873C13.7873 5.88267 14.0028 5.65714 14.2868 5.65714V4.05714Z" fill="#9A9AB6"/>
</svg>
